<svg width="160" height="295" viewBox="0 0 160 295" fill="none" xmlns="http://www.w3.org/2000/svg">
<path d="M159.412 294.387L139.303 294.387L139.303 284.587L159.412 284.587L159.412 294.387ZM137.074 289.375C137.074 290.838 136.568 292.084 135.555 293.115C134.526 294.129 133.31 294.636 131.905 294.636C130.501 294.636 129.285 294.129 128.256 293.115C127.211 292.084 126.688 290.838 126.688 289.375C126.688 288.411 126.925 287.53 127.399 286.732C127.872 285.934 128.501 285.294 129.285 284.812C130.068 284.313 130.942 284.064 131.905 284.064C133.31 284.064 134.526 284.587 135.555 285.634C136.568 286.665 137.074 287.912 137.074 289.375Z" fill="white" fill-opacity="0.5"/>
<path d="M138.715 264.43C138.715 262.917 139.009 261.455 139.597 260.042C140.168 258.612 141.091 257.44 142.364 256.526C143.622 255.595 145.279 255.129 147.337 255.129L159.412 255.129L159.412 264.954L148.831 264.954C147.786 264.954 146.961 265.22 146.357 265.752C145.736 266.267 145.426 266.965 145.426 267.846C145.426 268.428 145.565 268.969 145.843 269.467C146.12 269.949 146.512 270.332 147.018 270.614C147.524 270.897 148.129 271.038 148.831 271.038L159.412 271.038L159.412 280.863L139.303 280.863L139.303 271.038L141.826 271.038C141.303 270.822 140.805 270.398 140.331 269.766C139.858 269.135 139.474 268.353 139.18 267.422C138.87 266.492 138.715 265.494 138.715 264.43Z" fill="white" fill-opacity="0.5"/>
<path d="M139.303 253.325L139.303 250.208L131.048 250.208L131.048 240.508L139.303 240.508L139.303 236.369L147.141 236.369L147.141 240.508L149.737 240.508C150.325 240.508 150.864 240.442 151.354 240.309C151.844 240.159 152.088 239.777 152.088 239.162C152.088 238.829 152.007 238.522 151.844 238.239C151.68 237.94 151.566 237.757 151.501 237.691L158.285 234.499C158.4 234.632 158.596 235.064 158.873 235.796C159.151 236.51 159.404 237.425 159.633 238.538C159.878 239.636 160 240.841 160 242.154C160 244.515 159.371 246.451 158.114 247.964C156.857 249.46 154.938 250.208 152.358 250.208L147.141 250.208L147.141 253.325L139.303 253.325Z" fill="white" fill-opacity="0.5"/>
<path d="M151.256 223.989C151.648 223.906 151.982 223.698 152.26 223.366C152.521 223.016 152.725 222.576 152.872 222.044C153.019 221.495 153.093 220.88 153.093 220.199C153.093 219.467 153.06 218.752 152.995 218.054C152.929 217.356 152.823 216.716 152.676 216.134C152.529 215.552 152.342 215.087 152.113 214.738L158.163 211.222C158.359 211.538 158.604 212.061 158.898 212.793C159.175 213.508 159.428 214.522 159.657 215.835C159.886 217.132 160 218.811 160 220.872C160 223.183 159.616 225.277 158.849 227.156C158.081 229.034 156.897 230.53 155.297 231.644C153.681 232.741 151.631 233.29 149.149 233.29C147.19 233.29 145.426 232.833 143.859 231.918C142.275 231.004 141.025 229.683 140.111 227.954C139.18 226.225 138.715 224.13 138.715 221.67C138.715 219.293 139.107 217.24 139.89 215.511C140.674 213.765 141.883 212.427 143.516 211.496C145.132 210.549 147.206 210.075 149.737 210.075C149.868 210.075 150.129 210.083 150.521 210.1C150.896 210.1 151.141 210.116 151.256 210.15L151.256 223.989ZM147.312 219.326C146.773 219.343 146.324 219.451 145.965 219.65C145.606 219.833 145.344 220.082 145.181 220.398C145.002 220.714 144.912 221.088 144.912 221.52C144.912 221.903 144.993 222.268 145.157 222.617C145.304 222.95 145.557 223.224 145.916 223.44C146.259 223.656 146.724 223.773 147.312 223.789L147.312 219.326Z" fill="white" fill-opacity="0.5"/>
<path d="M159.412 197.972L159.412 207.797L139.303 207.797L139.303 197.972L142.168 197.972L142.168 198.097C141.809 197.914 141.36 197.574 140.821 197.075C140.282 196.559 139.801 195.845 139.376 194.93C138.935 193.999 138.715 192.836 138.715 191.439C138.715 190.508 138.87 189.619 139.18 188.771C139.474 187.923 139.768 187.292 140.062 186.876L147.851 190.641C147.524 190.858 147.198 191.265 146.871 191.863C146.528 192.462 146.357 193.21 146.357 194.107C146.357 195.072 146.553 195.836 146.945 196.402C147.32 196.967 147.794 197.374 148.365 197.623C148.921 197.856 149.468 197.972 150.006 197.972L159.412 197.972Z" fill="white" fill-opacity="0.5"/>
<path d="M138.715 169.461C138.715 167.948 139.009 166.485 139.597 165.072C140.168 163.642 141.091 162.47 142.364 161.556C143.622 160.625 145.279 160.16 147.337 160.16L159.412 160.16L159.412 169.984L148.831 169.984C147.786 169.984 146.961 170.25 146.357 170.782C145.736 171.297 145.426 171.996 145.426 172.877C145.426 173.459 145.565 173.999 145.843 174.498C146.12 174.98 146.512 175.362 147.018 175.645C147.524 175.927 148.129 176.068 148.831 176.068L159.412 176.068L159.412 185.893L139.303 185.893L139.303 176.068L141.826 176.068C141.303 175.852 140.805 175.428 140.331 174.797C139.858 174.165 139.474 173.384 139.18 172.453C138.87 171.522 138.715 170.524 138.715 169.461Z" fill="white" fill-opacity="0.5"/>
<path d="M159.412 141.15L156.595 141.15C156.889 141.316 157.314 141.69 157.869 142.272C158.408 142.837 158.898 143.585 159.339 144.516C159.78 145.431 160 146.503 160 147.733C160 149.778 159.502 151.54 158.506 153.019C157.493 154.482 156.179 155.604 154.562 156.386C152.946 157.167 151.215 157.558 149.37 157.558C147.524 157.558 145.794 157.167 144.177 156.386C142.56 155.604 141.246 154.482 140.233 153.019C139.221 151.54 138.715 149.778 138.715 147.733C138.715 146.569 138.878 145.555 139.205 144.691C139.515 143.826 139.899 143.112 140.356 142.546C140.797 141.965 141.23 141.532 141.654 141.25L139.303 141.25L139.303 131.475L159.412 131.475L159.412 141.15ZM149.37 147.933C149.925 147.933 150.447 147.791 150.937 147.509C151.427 147.226 151.819 146.835 152.113 146.337C152.407 145.838 152.554 145.256 152.554 144.591C152.554 143.926 152.407 143.344 152.113 142.846C151.819 142.347 151.427 141.956 150.937 141.674C150.447 141.391 149.925 141.25 149.37 141.25C148.814 141.25 148.292 141.391 147.802 141.674C147.312 141.956 146.92 142.347 146.626 142.846C146.316 143.344 146.161 143.926 146.161 144.591C146.161 145.256 146.316 145.838 146.626 146.337C146.92 146.835 147.312 147.226 147.802 147.509C148.292 147.791 148.814 147.933 149.37 147.933Z" fill="white" fill-opacity="0.5"/>
<path d="M139.303 129.085L139.303 125.969L131.048 125.969L131.048 116.269L139.303 116.269L139.303 112.129L147.141 112.129L147.141 116.269L149.737 116.269C150.325 116.269 150.864 116.202 151.354 116.069C151.844 115.919 152.088 115.537 152.088 114.922C152.088 114.59 152.007 114.282 151.844 113.999C151.68 113.7 151.566 113.517 151.501 113.451L158.285 110.259C158.4 110.392 158.596 110.824 158.873 111.556C159.151 112.271 159.404 113.185 159.633 114.299C159.878 115.396 160 116.601 160 117.914C160 120.275 159.371 122.212 158.114 123.724C156.857 125.22 154.938 125.969 152.358 125.969L147.141 125.969L147.141 129.085L139.303 129.085Z" fill="white" fill-opacity="0.5"/>
<path d="M159.412 108.003L139.303 108.003L139.303 98.2031L159.412 98.2031L159.412 108.003ZM137.074 102.991C137.074 104.454 136.567 105.7 135.555 106.731C134.526 107.745 133.31 108.252 131.905 108.252C130.501 108.252 129.285 107.745 128.256 106.731C127.211 105.7 126.688 104.454 126.688 102.991C126.688 102.027 126.925 101.146 127.399 100.348C127.872 99.5496 128.501 98.9096 129.285 98.4275C130.068 97.9288 130.942 97.6795 131.905 97.6795C133.31 97.6795 134.526 98.2031 135.555 99.2504C136.567 100.281 137.074 101.528 137.074 102.991Z" fill="white" fill-opacity="0.5"/>
<path d="M160 82.8587C160 85.1861 159.559 87.2557 158.677 89.0677C157.779 90.8797 156.538 92.301 154.954 93.3317C153.354 94.3624 151.509 94.8777 149.419 94.8777C147.328 94.8777 145.483 94.3624 143.883 93.3317C142.266 92.301 141.001 90.8797 140.086 89.0677C139.172 87.2557 138.715 85.1861 138.715 82.8587C138.715 80.5314 139.172 78.4784 140.086 76.6996C141.001 74.9209 142.266 73.5328 143.883 72.5354C145.483 71.5213 147.328 71.0143 149.419 71.0143C151.509 71.0143 153.354 71.5213 154.954 72.5354C156.538 73.5328 157.779 74.9209 158.677 76.6996C159.559 78.4784 160 80.5314 160 82.8587ZM152.162 82.8587C152.162 82.3102 152.056 81.8447 151.844 81.4623C151.615 81.08 151.288 80.7891 150.864 80.5896C150.439 80.3735 149.941 80.2654 149.37 80.2654C148.798 80.2654 148.3 80.3735 147.876 80.5896C147.451 80.7891 147.124 81.08 146.896 81.4623C146.667 81.8447 146.553 82.3102 146.553 82.8587C146.553 83.4073 146.667 83.8811 146.896 84.2801C147.124 84.6624 147.451 84.9616 147.876 85.1777C148.3 85.3939 148.798 85.5019 149.37 85.5019C149.941 85.5019 150.439 85.3939 150.864 85.1777C151.288 84.9616 151.615 84.6624 151.844 84.2801C152.056 83.8811 152.162 83.4073 152.162 82.8587Z" fill="white" fill-opacity="0.5"/>
<path d="M138.715 51.7956C138.715 50.2828 139.009 48.8199 139.597 47.4069C140.168 45.9772 141.091 44.8053 142.364 43.891C143.622 42.9601 145.279 42.4946 147.337 42.4946L159.412 42.4946L159.412 52.3192L148.831 52.3192C147.786 52.3192 146.961 52.5852 146.357 53.1172C145.736 53.6325 145.426 54.3307 145.426 55.2117C145.426 55.7936 145.565 56.3339 145.843 56.8326C146.12 57.3147 146.512 57.697 147.018 57.9796C147.524 58.2622 148.129 58.4035 148.831 58.4035L159.412 58.4035L159.412 68.2281L139.303 68.2281L139.303 58.4035L141.826 58.4035C141.303 58.1874 140.805 57.7635 140.331 57.1318C139.858 56.5001 139.474 55.7188 139.18 54.7878C138.87 53.8569 138.715 52.8595 138.715 51.7956Z" fill="white" fill-opacity="0.5"/>
<path d="M159.412 23.4851L156.595 23.4851C156.889 23.6513 157.314 24.0253 157.869 24.6072C158.408 25.1724 158.898 25.9204 159.339 26.8514C159.78 27.7657 160 28.8379 160 30.0681C160 32.1128 159.502 33.8749 158.506 35.3544C157.493 36.8173 156.179 37.9394 154.562 38.7207C152.946 39.502 151.215 39.8927 149.37 39.8927C147.524 39.8927 145.794 39.502 144.177 38.7207C142.56 37.9394 141.246 36.8173 140.233 35.3544C139.221 33.8749 138.715 32.1128 138.715 30.0681C138.715 28.9044 138.878 27.8903 139.205 27.0259C139.515 26.1615 139.899 25.4466 140.356 24.8815C140.797 24.2996 141.229 23.8674 141.654 23.5848L139.303 23.5848L139.303 13.81L159.412 13.81L159.412 23.4851ZM149.37 30.2675C149.925 30.2675 150.447 30.1262 150.937 29.8436C151.427 29.561 151.819 29.1704 152.113 28.6717C152.407 28.173 152.554 27.5911 152.554 26.9262C152.554 26.2612 152.407 25.6794 152.113 25.1807C151.819 24.682 151.427 24.2913 150.937 24.0087C150.447 23.7261 149.925 23.5848 149.37 23.5848C148.814 23.5848 148.292 23.7261 147.802 24.0087C147.312 24.2913 146.92 24.682 146.626 25.1807C146.316 25.6794 146.161 26.2612 146.161 26.9262C146.161 27.5911 146.316 28.173 146.626 28.6717C146.92 29.1704 147.312 29.561 147.802 29.8436C148.292 30.1262 148.814 30.2675 149.37 30.2675Z" fill="white" fill-opacity="0.5"/>
<path d="M159.412 -6.96813e-06L159.412 9.82461L125.709 9.82461L125.709 -5.49489e-06L159.412 -6.96813e-06Z" fill="white" fill-opacity="0.5"/>
<path d="M73.4817 231.634L73.4817 260.941L116.188 260.941L116.188 295L2.07478 295L2.07478 260.941L44.5213 260.941L44.5213 231.634L2.07478 231.634L2.07478 197.663L116.188 197.663L116.188 231.634L73.4817 231.634Z" fill="white" fill-opacity="0.5"/>
<path d="M-7.05045e-06 133.705C-7.37872e-06 126.195 0.806851 119.535 2.42057 113.727C3.97665 107.859 5.64801 103.136 7.43462 99.5574C9.22123 95.9197 10.4315 93.6902 11.0655 92.8688L37.8647 108.974C37.1731 109.913 36.2222 111.556 35.0119 113.903C33.744 116.191 32.6201 118.773 31.6404 121.647C30.6606 124.522 30.1707 127.28 30.1707 129.92C30.1707 133.03 30.603 135.611 31.4675 137.665C32.2743 139.718 33.6863 140.745 35.7035 140.745C37.0867 140.745 38.3546 140.188 39.5072 139.073C40.6599 137.958 41.8414 136.081 43.0517 133.441C44.2619 130.742 45.6451 127.075 47.2012 122.439C48.642 117.922 50.4286 113.785 52.5611 110.03C54.6935 106.275 57.2293 103.048 60.1686 100.349C63.1078 97.5919 66.4794 95.4504 70.2831 93.9249C74.0869 92.3994 78.3805 91.6367 83.164 91.6367C89.5036 91.6367 94.9211 92.9861 99.4165 95.685C103.854 98.3253 107.456 101.875 110.223 106.334C112.989 110.793 115.006 115.78 116.274 121.295C117.6 126.752 118.262 132.296 118.262 137.929C118.262 146.554 117.34 154.24 115.496 160.987C113.652 167.676 111.663 173.103 109.531 177.269C107.341 181.376 105.785 183.898 104.863 184.837L76.9397 168.204C77.4584 167.558 78.2941 166.18 79.4467 164.067C80.5994 161.896 81.8097 159.315 83.0776 156.323C84.3455 153.272 85.4405 150.133 86.3627 146.906C87.2271 143.679 87.6594 140.687 87.6594 137.929C87.6594 134.233 87.1407 131.504 86.1033 129.744C85.0659 127.984 83.5675 127.104 81.608 127.104C80.2248 127.104 78.928 127.661 77.7178 128.776C76.5075 129.832 75.2395 131.768 73.914 134.585C72.5308 137.342 70.9459 141.273 69.1593 146.378C67.3727 151.306 65.0385 156 62.1569 160.459C59.2753 164.918 55.5291 168.556 50.9185 171.372C46.3079 174.188 40.5446 175.596 33.6287 175.596C26.5975 175.596 20.5749 173.602 15.5608 169.612C10.5468 165.622 6.71421 160.43 4.06311 154.034C1.35436 147.639 -6.73756e-06 140.863 -7.05045e-06 133.705Z" fill="white" fill-opacity="0.5"/>
<path d="M2.07477 78.0738L2.07477 0.0986327L31.1217 0.0986315L31.1217 44.0147L44.9535 44.0147L44.9535 0.0986308L73.0495 0.0986296L73.0495 44.0147L87.1407 44.0147L87.1407 0.098629L116.188 0.0986277L116.188 78.0738L2.07477 78.0738Z" fill="white" fill-opacity="0.5"/>
</svg>
